<?xml version="1.0" encoding="iso-8859-1"?>
<!-- Generator: Adobe Illustrator 19.0.0, SVG Export Plug-In . SVG Version: 6.00 Build 0)  -->
<svg version="1.1" id="Layer_1" xmlns="http://www.w3.org/2000/svg" xmlns:xlink="http://www.w3.org/1999/xlink" x="0px" y="0px"
	 viewBox="0 0 512 512" style="enable-background:new 0 0 512 512;" xml:space="preserve">
<g>
	<g>
		<path d="M437.019,74.981C388.667,26.628,324.379,0,256,0S123.333,26.628,74.981,74.981C26.628,123.332,0,187.621,0,256
			s26.628,132.668,74.981,181.019C123.333,485.372,187.621,512,256,512s132.667-26.628,181.019-74.981
			C485.372,388.668,512,324.379,512,256S485.372,123.332,437.019,74.981z M422.242,422.241
			C377.837,466.647,318.798,491.102,256,491.102c-62.798,0-121.837-24.455-166.242-68.86c-91.666-91.667-91.666-240.818,0-332.484
			C134.163,45.353,193.202,20.898,256,20.898c62.798,0,121.837,24.455,166.242,68.86
			C513.909,181.425,513.909,330.575,422.242,422.241z"/>
	</g>
</g>
<g>
	<g>
		<path d="M401.554,110.446C362.676,71.567,310.984,50.155,256,50.155s-106.675,21.412-145.553,60.291
			C71.567,149.324,50.155,201.016,50.155,256s21.412,106.676,60.291,145.554c38.88,38.879,90.571,60.291,145.554,60.291
			s106.675-21.412,145.553-60.291c38.88-38.879,60.292-90.571,60.292-145.554S440.433,149.324,401.554,110.446z M386.776,386.776
			c-34.931,34.933-81.376,54.171-130.776,54.171s-95.845-19.238-130.777-54.171C90.292,351.845,71.053,305.401,71.053,256
			s19.239-95.845,54.171-130.776C160.155,90.291,206.599,71.053,256,71.053s95.845,19.238,130.777,54.171
			c34.931,34.931,54.17,81.376,54.17,130.776S421.708,351.845,386.776,386.776z"/>
	</g>
</g>
<g>
	<g>
		<path d="M410.158,282.12c-2.041-2.041-4.714-3.06-7.387-3.06c-2.675,0-5.35,1.021-7.389,3.062l-3.307,3.308
			c-4.079,4.081-4.079,10.698,0.002,14.778c4.081,4.08,10.697,4.078,14.777-0.002l3.307-3.308
			C414.239,292.816,414.239,286.2,410.158,282.12z"/>
	</g>
</g>
<g>
	<g>
		<path d="M382.949,309.332c-2.041-2.04-4.715-3.06-7.388-3.06s-5.349,1.021-7.388,3.06l-86.052,86.05
			c-4.08,4.08-4.08,10.697,0,14.778c4.08,4.078,10.697,4.078,14.777,0l86.052-86.05
			C387.029,320.029,387.029,313.413,382.949,309.332z"/>
	</g>
</g>
<g>
	<g>
		<path d="M413.623,221.026c-2.041-2.04-4.715-3.061-7.388-3.061c-2.674,0.001-5.348,1.021-7.388,3.061l-177.82,177.819
			c-4.08,4.08-4.08,10.697,0,14.778c4.081,4.078,10.697,4.079,14.777,0l177.82-177.819
			C417.703,231.724,417.703,225.108,413.623,221.026z"/>
	</g>
</g>
<g>
	<g>
		<path d="M407.696,169.323c-2.041-2.04-4.715-3.06-7.388-3.06s-5.349,1.021-7.388,3.06L169.323,392.918
			c-4.08,4.08-4.08,10.697,0,14.778c4.08,4.079,10.697,4.079,14.778,0l223.596-223.596
			C411.777,180.02,411.777,173.404,407.696,169.323z"/>
	</g>
</g>
<g>
	<g>
		<path d="M211.615,124.883c-4.76-0.001-8.686,3.925-8.686,8.686v75.802c0,15.902-13.351,29.263-29.255,29.255
			c-15.859-0.008-29.174-13.41-29.174-29.255v-75.802c0-4.761-3.926-8.686-8.688-8.686c-4.761-0.001-8.686,3.925-8.686,8.686v75.802
			c0,23.57,18.429,44.368,42.077,46.439c26.868,2.353,51.099-19.291,51.099-46.439v-75.802
			C220.301,128.809,216.375,124.883,211.615,124.883z"/>
	</g>
</g>
<g>
	<g>
		<path d="M331.549,125.162c-4.241-1.084-8.696,0.706-10.287,4.884l-36.221,93.175l-36.22-93.175
			c-1.886-4.24-6.574-6.224-10.998-4.687c-2.398,0.833-4.325,2.746-5.189,5.131c-0.91,2.511-0.488,5.075,0.453,7.504l44.005,112.515
			c1.475,3.661,4.124,5.491,7.948,5.491s6.475-1.83,7.949-5.49l44.006-112.515C339.179,132.908,337.319,126.635,331.549,125.162z"/>
	</g>
</g>
<g>
</g>
<g>
</g>
<g>
</g>
<g>
</g>
<g>
</g>
<g>
</g>
<g>
</g>
<g>
</g>
<g>
</g>
<g>
</g>
<g>
</g>
<g>
</g>
<g>
</g>
<g>
</g>
<g>
</g>
</svg>
