<?xml version="1.0" encoding="iso-8859-1"?>
<!-- Generator: Adobe Illustrator 19.0.0, SVG Export Plug-In . SVG Version: 6.00 Build 0)  -->
<svg version="1.1" id="Layer_1" xmlns="http://www.w3.org/2000/svg" xmlns:xlink="http://www.w3.org/1999/xlink" x="0px" y="0px"
	 viewBox="0 0 503.894 503.894" style="enable-background:new 0 0 503.894 503.894;" xml:space="preserve">
<g transform="translate(15 15)">
	<path style="fill:#FFE079;" d="M327.4,146.707c23.04,23.04,37.547,55.467,37.547,90.453c0,70.827-57.173,128-128,128
		c-34.987,0-67.413-14.507-90.453-37.547L327.4,146.707z"/>
	<g>
		<path style="fill:#AAB1BA;" d="M327.4,146.707L146.493,327.614c-1.707-1.707-2.56-2.56-4.267-4.267
			c-3.413-3.413-5.973-6.827-9.387-11.093c-0.853-1.707-1.707-2.56-2.56-4.267c-0.853-1.707-2.56-3.413-3.413-5.12
			c-2.56-3.413-4.267-7.68-5.973-11.093c-15.36-33.28-16.213-71.68-0.853-106.667c0.853-1.707,1.707-3.413,2.56-4.267
			c0.853-1.707,1.707-3.413,2.56-4.267c0.853-1.707,1.707-3.413,3.413-5.12c0.853-1.707,2.56-3.413,3.413-5.12
			c0.853-0.853,0.853-1.707,1.707-2.56c5.973,8.533,16.213,14.507,27.307,14.507c18.773,0,34.133-15.36,34.133-34.133
			c0-8.533-3.413-17.067-9.387-23.04c16.213-6.827,33.28-11.093,52.053-11.093C271.934,109.16,304.36,123.667,327.4,146.707"/>
		<path style="fill:#AAB1BA;" d="M184.893,120.254c5.973,5.973,9.387,14.507,9.387,23.04c0,18.773-15.36,34.133-34.133,34.133
			c-11.093,0-21.333-5.973-27.307-14.507C145.64,144.147,163.56,129.64,184.893,120.254"/>
		<path style="fill:#AAB1BA;" d="M245.48,143.294c9.387,0,17.067,7.68,17.067,17.067s-7.68,17.067-17.067,17.067
			s-17.067-7.68-17.067-17.067S236.093,143.294,245.48,143.294"/>
		<path style="fill:#AAB1BA;" d="M168.68,211.56c14.507,0,25.6,11.093,25.6,25.6c0,14.507-11.093,25.6-25.6,25.6
			c-14.507,0-25.6-11.093-25.6-25.6C143.08,222.654,154.173,211.56,168.68,211.56"/>
	</g>
</g>
<path style="fill:#51565F;" d="M149.547,503.894c-0.853,0-0.853,0-1.707,0c-1.707-0.853-2.56-2.56-2.56-4.267
	c0-0.853,0-0.853,0-1.707l14.507-34.987c0.853-2.56,3.413-3.413,5.973-2.56c1.707,0.853,2.56,2.56,2.56,4.267
	c0,0.853,0,0.853,0,1.707l-14.507,34.987C152.96,503.04,151.254,503.894,149.547,503.894z M4.48,503.894
	c-0.853,0-2.56,0-3.413-0.853c-0.853-0.853-0.853-1.707-0.853-3.413s0-2.56,0.853-3.413l153.6-153.6
	C112,297.387,106.88,227.414,142.72,175.36c0.853-1.707,2.56-1.707,4.267-1.707c0.853,0,2.56,0.853,2.56,1.707
	c5.973,7.68,14.507,11.947,23.893,11.947c16.213,0,29.867-13.653,29.867-29.867c0-6.827-1.707-12.8-5.973-17.92
	c-9.387,4.267-17.92,10.24-26.453,16.213c-1.707,1.707-4.267,0.853-5.973-0.853s-0.853-4.267,0.853-5.973
	c9.387-7.68,19.627-14.507,30.72-18.773h0.853C234.88,113.92,280.96,116.48,316.8,136.96c1.707,0.853,2.56,3.413,1.707,5.973
	c-0.853,1.707-3.413,2.56-5.973,1.707c-32.427-18.773-72.533-22.187-107.52-8.533c4.267,5.973,6.827,13.653,6.827,21.333
	c0,21.333-17.067,38.4-38.4,38.4c-10.24,0-20.48-4.267-27.307-11.093c-30.72,47.787-24.747,110.08,13.653,151.04L494.294,1.28
	c1.707-1.707,4.267-1.707,5.973,0c0.853,0.853,0.853,1.707,0.853,3.413s0,2.56-0.853,3.413l-153.6,153.6
	c23.04,24.747,35.84,56.32,35.84,90.453c0,72.533-59.733,132.267-132.267,132.267c-23.893,0-46.933-5.973-67.413-17.92
	c-1.707-0.853-2.56-3.413-1.707-5.973c0.853-1.707,3.413-2.56,5.973-1.707c18.773,11.093,40.96,17.067,63.147,17.067
	c68.267,0,123.733-55.467,123.733-123.733c0-31.573-11.947-61.44-33.28-84.48L6.187,502.187
	C7.04,503.894,5.334,503.894,4.48,503.894z M354.347,503.04c-1.707,0-3.413-0.853-4.267-2.56l-14.507-34.133
	c0-0.853,0-0.853,0-1.707c0-1.707,0.853-3.413,2.56-4.267c2.56-0.853,4.267,0,5.973,2.56l14.507,34.133c0,0.853,0,0.853,0,1.707
	c0,1.707-0.853,3.413-2.56,4.267C355.2,503.04,355.2,503.04,354.347,503.04z M251.947,486.827c-2.56,0-4.267-1.707-4.267-4.267
	v-68.267c0-2.56,1.707-4.267,4.267-4.267s4.267,1.707,4.267,4.267v68.267C256.214,485.12,254.507,486.827,251.947,486.827z
	 M327.04,437.334c-1.707,0-3.413-0.853-4.267-2.56l-12.8-31.573c0-0.853,0-0.853,0-1.707c0-1.707,0.853-3.413,2.56-4.267
	c2.56-0.853,4.267,0,5.973,2.56l12.8,31.573c0,0.853,0,0.853,0,1.707c0,1.707-0.853,3.413-2.56,4.267
	C327.893,437.334,327.893,437.334,327.04,437.334z M176.853,437.334c-0.853,0-0.853,0-1.707,0c-1.707-0.853-2.56-2.56-2.56-4.267
	c0-0.853,0-0.853,0-1.707l12.8-31.573c0.853-2.56,3.413-3.413,5.973-2.56c1.707,0.853,2.56,2.56,2.56,4.267c0,0.853,0,0.853,0,1.707
	l-12.8,31.573C180.267,436.48,178.56,437.334,176.853,437.334z M417.493,420.267c-0.853,0-2.56,0-3.413-0.853l-48.64-48.64
	c-0.853-0.853-0.853-1.707-0.853-3.413c0-1.706,0-2.56,0.853-3.413c1.707-1.707,4.267-1.707,5.973,0l48.64,48.64
	c0.853,0.853,0.853,1.707,0.853,3.413c0,1.706,0,2.56-0.853,3.413S419.2,420.267,417.493,420.267z M499.414,358.827
	c-0.853,0-0.853,0-1.707,0L462.72,344.32c-1.707-0.853-2.56-2.56-2.56-4.267c0-0.853,0-0.853,0-1.707
	c0.853-2.56,3.413-3.413,5.973-2.56l34.987,14.507c1.707,0.853,2.56,2.56,2.56,4.267c0,0.853,0,0.853,0,1.707
	C502.827,357.974,501.12,358.827,499.414,358.827z M432.853,331.52c-0.853,0-0.853,0-1.707,0l-31.573-12.8
	c-1.707-0.853-2.56-2.56-2.56-4.267c0-0.853,0-0.853,0-1.707c0.853-2.56,3.413-3.413,5.973-2.56l31.573,12.8
	c1.707,0.853,2.56,2.56,2.56,4.267c0,0.853,0,0.853,0,1.707C436.267,330.667,434.56,331.52,432.853,331.52z M38.613,299.094
	c-2.56,0-4.267-1.707-4.267-4.267v-12.8h-12.8c-2.56,0-4.267-1.707-4.267-4.267c0-2.56,1.707-4.267,4.267-4.267h12.8v-12.8
	c0-2.56,1.707-4.267,4.267-4.267c2.56,0,4.267,1.707,4.267,4.267v12.8h12.8c2.56,0,4.267,1.707,4.267,4.267
	c0,2.56-1.707,4.267-4.267,4.267h-12.8v12.8C42.88,297.387,41.173,299.094,38.613,299.094z M341.547,285.44
	c-0.853,0-0.853,0-1.707,0c-2.56-0.853-3.413-3.413-2.56-5.12c5.12-15.36,5.973-30.72,2.56-46.08
	c-0.853-2.56,0.853-4.267,3.413-5.12c2.56-0.853,4.267,0.853,5.12,3.413c3.413,17.067,2.56,34.133-2.56,51.2
	C344.96,284.587,343.253,285.44,341.547,285.44z M175.147,280.32c-0.853,0-0.853,0-1.707,0c-11.947-4.267-19.627-15.36-19.627-28.16
	c0-16.213,13.653-29.867,29.867-29.867c12.8,0,23.893,7.68,28.16,19.627c0.853,2.56,0,4.267-2.56,5.12
	c-2.56,0.853-4.267,0-5.12-2.56c-3.413-8.533-11.093-14.507-20.48-14.507c-11.947,0-21.333,9.387-21.333,21.333
	c0,9.387,5.973,17.067,14.507,20.48c2.56,0.853,3.413,3.413,2.56,5.12C178.56,279.467,176.853,280.32,175.147,280.32z
	 M482.347,256.427H414.08c-2.56,0-4.267-1.707-4.267-4.267c0-2.56,1.707-4.267,4.267-4.267h68.267c2.56,0,4.267,1.707,4.267,4.267
	C486.613,254.72,484.907,256.427,482.347,256.427z M260.48,196.694c-11.947,0-21.333-9.387-21.333-21.333
	c0-11.947,9.387-21.333,21.333-21.333c11.947,0,21.333,9.387,21.333,21.333C281.813,187.307,272.427,196.694,260.48,196.694z
	 M260.48,162.56c-6.827,0-12.8,5.973-12.8,12.8c0,6.827,5.973,12.8,12.8,12.8c6.827,0,12.8-5.973,12.8-12.8
	C273.28,168.534,267.307,162.56,260.48,162.56z M402.134,194.134c-1.707,0-3.413-0.853-4.267-2.56c0-0.853,0-0.853,0-1.707
	c0-1.707,0.853-3.413,2.56-4.267L432,172.8c2.56-0.853,4.267,0,5.973,2.56c0,0.853,0,0.853,0,1.707c0,1.707-0.853,3.413-2.56,4.267
	l-31.573,12.8C402.987,194.134,402.134,194.134,402.134,194.134z M464.427,168.534c-1.707,0-3.413-0.853-4.267-2.56
	c0-0.853,0-0.853,0-1.707c0-1.707,0.853-3.413,2.56-4.267l34.987-14.507c2.56-0.853,4.267,0,5.973,2.56c0,0.853,0,0.853,0,1.707
	c0,1.707-0.853,3.413-2.56,4.267l-34.987,14.507C466.134,168.534,465.28,168.534,464.427,168.534z M38.613,128.427
	c-2.56,0-4.267-1.707-4.267-4.267V94.294H4.48c-2.56,0-4.267-1.707-4.267-4.267c0-2.56,1.707-4.267,4.267-4.267h29.867V55.894
	c0-2.56,1.707-4.267,4.267-4.267c2.56,0,4.267,1.707,4.267,4.267V85.76h29.867c2.56,0,4.267,1.707,4.267,4.267
	c0,2.56-1.707,4.267-4.267,4.267H42.88v29.867C42.88,126.72,41.173,128.427,38.613,128.427z M192.213,43.094
	c-2.56,0-4.267-1.707-4.267-4.267v-12.8h-12.8c-2.56,0-4.267-1.707-4.267-4.267s1.707-4.267,4.267-4.267h12.8v-12.8
	c0-2.56,1.707-4.267,4.267-4.267s4.267,1.707,4.267,4.267v12.8h12.8c2.56,0,4.267,1.707,4.267,4.267s-1.707,4.267-4.267,4.267h-12.8
	v12.8C196.48,41.387,194.774,43.094,192.213,43.094z"/>
<g>
</g>
<g>
</g>
<g>
</g>
<g>
</g>
<g>
</g>
<g>
</g>
<g>
</g>
<g>
</g>
<g>
</g>
<g>
</g>
<g>
</g>
<g>
</g>
<g>
</g>
<g>
</g>
<g>
</g>
</svg>
