<?xml version="1.0" encoding="iso-8859-1"?>
<!-- Generator: Adobe Illustrator 19.0.0, SVG Export Plug-In . SVG Version: 6.00 Build 0)  -->
<svg version="1.1" id="Layer_1" xmlns="http://www.w3.org/2000/svg" xmlns:xlink="http://www.w3.org/1999/xlink" x="0px" y="0px"
	 viewBox="0 0 512 512" style="enable-background:new 0 0 512 512;" xml:space="preserve">
<path style="fill:#B9873C;" d="M257.321,512h-49.837c-4.971,0-8.89-4.231-8.508-9.188l7.826-101.745h51.2l7.826,101.745
	C266.211,507.769,262.292,512,257.321,512z"/>
<polygon style="fill:#A3682D;" points="258.003,401.067 206.803,401.067 202.167,461.333 262.639,461.333 "/>
<path style="fill:#11BBA3;" d="M407.071,452.267H57.735c-20.531,0-36.416-17.995-33.87-38.367l25.6-204.8
	c2.135-17.082,16.656-29.9,33.87-29.9h298.135c17.214,0,31.734,12.818,33.87,29.9l25.6,204.8
	C443.487,434.272,427.602,452.267,407.071,452.267z"/>
<path style="fill:#72CCC5;" d="M331.725,366.933H435.07l-2.133-17.067H331.251l-1.897-68.267h95.049l-2.133-17.067h-93.389
	l-2.37-85.333h-17.073l2.37,85.333h-70.87V179.2h-17.067v85.333H153l2.37-85.333h-17.073l-2.37,85.333H42.536L40.403,281.6h95.049
	l-1.897,68.267H31.87l-2.133,17.067h103.345l-2.37,85.333h17.073l2.37-85.333h73.715v85.333h17.067v-85.333h73.715l2.37,85.333
	h17.073L331.725,366.933z M223.87,349.867h-73.241l1.897-68.267h71.345v68.267H223.87z M240.936,349.867V281.6h71.345l1.897,68.267
	H240.936z"/>
<path style="fill:#30958F;" d="M428.143,435.2H69.141c-15.398,0-27.312-13.495-25.403-28.775l26.8-214.391
	c0.519-4.154,1.776-8.052,3.62-11.579c-12.965,3.616-22.951,14.71-24.693,28.645l-25.6,204.8
	c-2.546,20.372,13.339,38.367,33.87,38.367h349.336c13.258,0,24.569-7.508,30.24-18.309
	C434.401,434.766,431.329,435.2,428.143,435.2z"/>
<circle style="fill:#FFC552;" cx="403.072" cy="85.333" r="51.2"/>
<circle style="fill:#FC9C47;" cx="403.072" cy="85.333" r="34.133"/>
<g>
	<path style="fill:#FFE5BA;" d="M403.07,25.6c-4.713,0-8.533-3.821-8.533-8.533V8.533c0-4.713,3.821-8.533,8.533-8.533
		c4.713,0,8.533,3.821,8.533,8.533v8.533C411.603,21.779,407.782,25.6,403.07,25.6z"/>
	<path style="fill:#FFE5BA;" d="M368.945,34.747c-2.95,0-5.818-1.531-7.398-4.268l-4.267-7.39c-2.357-4.081-0.958-9.3,3.123-11.657
		c4.084-2.358,9.3-0.957,11.657,3.123l4.267,7.39C379.543,27.517,375.415,34.747,368.945,34.747z"/>
	<path style="fill:#FFE5BA;" d="M343.94,59.734c-1.447,0-2.914-0.369-4.258-1.145l-7.39-4.267
		c-4.081-2.356-5.481-7.575-3.123-11.657c2.355-4.082,7.574-5.481,11.657-3.123l7.39,4.267c3.18,1.836,4.859,5.626,4.071,9.215
		C351.438,56.899,347.904,59.734,343.94,59.734z"/>
	<path style="fill:#FFE5BA;" d="M334.803,93.867h-8.533c-4.713,0-8.533-3.821-8.533-8.533s3.821-8.533,8.533-8.533h8.533
		c4.713,0,8.533,3.821,8.533,8.533S339.516,93.867,334.803,93.867z"/>
	<path style="fill:#FFE5BA;" d="M336.567,132.268c-3.964,0-7.497-2.835-8.347-6.709c-0.787-3.588,0.892-7.379,4.071-9.215
		l7.39-4.267c4.083-2.358,9.301-0.957,11.657,3.123c2.357,4.081,0.958,9.3-3.123,11.657l-7.39,4.267
		C339.483,131.899,338.015,132.268,336.567,132.268z"/>
	<path style="fill:#FFE5BA;" d="M364.661,160.378c-6.469,0-10.599-7.23-7.381-12.801l4.267-7.39
		c2.355-4.082,7.574-5.481,11.657-3.123c4.081,2.356,5.481,7.575,3.123,11.657l-4.267,7.39
		C370.479,158.848,367.611,160.378,364.661,160.378z"/>
	<path style="fill:#FFE5BA;" d="M403.07,170.667c-4.713,0-8.533-3.821-8.533-8.533V153.6c0-4.713,3.821-8.533,8.533-8.533
		c4.713,0,8.533,3.821,8.533,8.533v8.533C411.603,166.846,407.782,170.667,403.07,170.667z"/>
	<path style="fill:#FFE5BA;" d="M441.478,160.378c-2.95,0-5.818-1.531-7.398-4.268l-4.267-7.39c-2.357-4.081-0.958-9.3,3.123-11.657
		c4.083-2.358,9.301-0.957,11.657,3.123l4.267,7.39C452.077,153.148,447.949,160.378,441.478,160.378z"/>
	<path style="fill:#FFE5BA;" d="M469.572,132.268c-1.447,0-2.914-0.369-4.258-1.145l-7.39-4.267
		c-4.081-2.356-5.481-7.575-3.123-11.657c2.355-4.082,7.575-5.481,11.657-3.123l7.39,4.267c3.18,1.836,4.859,5.626,4.071,9.215
		C477.069,129.433,473.536,132.268,469.572,132.268z"/>
	<path style="fill:#FFE5BA;" d="M479.87,93.867h-8.533c-4.713,0-8.533-3.821-8.533-8.533s3.821-8.533,8.533-8.533h8.533
		c4.713,0,8.533,3.821,8.533,8.533S484.582,93.867,479.87,93.867z"/>
	<path style="fill:#FFE5BA;" d="M462.198,59.734c-3.964,0-7.497-2.835-8.347-6.709c-0.787-3.588,0.892-7.379,4.071-9.215l7.39-4.267
		c4.082-2.358,9.301-0.957,11.657,3.123c2.357,4.081,0.958,9.3-3.123,11.657l-7.39,4.267
		C465.113,59.365,463.646,59.734,462.198,59.734z"/>
	<path style="fill:#FFE5BA;" d="M437.195,34.747c-6.469,0-10.599-7.23-7.381-12.801l4.267-7.39
		c2.356-4.082,7.575-5.482,11.657-3.123c4.081,2.356,5.481,7.575,3.123,11.657l-4.267,7.39
		C443.012,33.217,440.144,34.747,437.195,34.747z"/>
</g>
<g>
	<path style="fill:#BCEBE7;" d="M121.558,136.533c-7.462,0-11.287-9.313-6.034-14.567c4.275-4.274,6.486-7.929,6.067-10.025
		c-0.426-2.133-3.294-5.001-6.067-7.773c-7.327-7.328-20.966-20.967,0-41.935c3.333-3.331,8.735-3.331,12.068,0
		c3.332,3.333,3.332,8.735,0,12.068c-4.275,4.274-6.486,7.929-6.067,10.025c0.426,2.133,3.294,5.001,6.067,7.773
		c7.327,7.328,20.966,20.967,0,41.935C125.926,135.7,123.743,136.533,121.558,136.533z"/>
	<path style="fill:#BCEBE7;" d="M181.203,136.533c-7.462,0-11.287-9.313-6.034-14.567c4.275-4.274,6.486-7.929,6.067-10.025
		c-0.426-2.133-3.294-5.001-6.067-7.773c-7.327-7.328-20.966-20.967,0-41.935c3.333-3.331,8.735-3.331,12.068,0
		c3.332,3.333,3.332,8.735,0,12.068c-4.275,4.274-6.486,7.929-6.067,10.025c0.426,2.133,3.294,5.001,6.067,7.773
		c7.327,7.328,20.966,20.967,0,41.935C185.571,135.7,183.388,136.533,181.203,136.533z"/>
	<path style="fill:#BCEBE7;" d="M240.848,136.533c-7.462,0-11.287-9.313-6.034-14.567c4.275-4.274,6.486-7.929,6.067-10.025
		c-0.426-2.133-3.294-5.001-6.067-7.773c-7.327-7.328-20.966-20.967,0-41.935c3.333-3.331,8.735-3.331,12.068,0
		c3.332,3.333,3.332,8.735,0,12.068c-4.275,4.274-6.486,7.929-6.067,10.025c0.426,2.133,3.294,5.001,6.067,7.773
		c7.327,7.328,20.966,20.967,0,41.935C245.216,135.7,243.032,136.533,240.848,136.533z"/>
</g>
<g>
</g>
<g>
</g>
<g>
</g>
<g>
</g>
<g>
</g>
<g>
</g>
<g>
</g>
<g>
</g>
<g>
</g>
<g>
</g>
<g>
</g>
<g>
</g>
<g>
</g>
<g>
</g>
<g>
</g>
</svg>
